<mxfile host="app.diagrams.net" modified="2023-09-15T15:33:10.544Z" agent="Mozilla/5.0 (X11; Linux x86_64) AppleWebKit/537.36 (KHTML, like Gecko) Chrome/116.0.0.0 Safari/537.36" etag="CnTAq8X3_0dhWS45PIQT" version="21.7.5" type="device">
  <diagram name="Page-1" id="TyzzBOYyk_Nzjfgw3fak">
    <mxGraphModel dx="934" dy="851" grid="1" gridSize="10" guides="1" tooltips="1" connect="1" arrows="1" fold="1" page="1" pageScale="1" pageWidth="827" pageHeight="1169" math="0" shadow="0">
      <root>
        <mxCell id="0" />
        <mxCell id="1" parent="0" />
        <mxCell id="PtaGEnMnEHYMcKoFGp5g-7" value="" style="shape=cube;whiteSpace=wrap;html=1;boundedLbl=1;backgroundOutline=1;darkOpacity=0.05;darkOpacity2=0.1;size=115;rotation=91;fillColor=#d0cee2;strokeColor=#56517e;" parent="1" vertex="1">
          <mxGeometry x="-33.63" y="180.76" width="327.77" height="120" as="geometry" />
        </mxCell>
        <mxCell id="PtaGEnMnEHYMcKoFGp5g-8" value="" style="shape=cube;whiteSpace=wrap;html=1;boundedLbl=1;backgroundOutline=1;darkOpacity=0.05;darkOpacity2=0.1;size=115;rotation=91;fillColor=#d0cee2;strokeColor=#56517e;" parent="1" vertex="1">
          <mxGeometry x="-20" y="180.76" width="327.77" height="120" as="geometry" />
        </mxCell>
        <mxCell id="PtaGEnMnEHYMcKoFGp5g-9" value="" style="shape=cube;whiteSpace=wrap;html=1;boundedLbl=1;backgroundOutline=1;darkOpacity=0.05;darkOpacity2=0.1;size=64;rotation=91;fillColor=#fad9d5;strokeColor=#ae4132;" parent="1" vertex="1">
          <mxGeometry x="80.00000000000001" y="210" width="145.26" height="74.65" as="geometry" />
        </mxCell>
        <mxCell id="PtaGEnMnEHYMcKoFGp5g-10" value="" style="shape=cube;whiteSpace=wrap;html=1;boundedLbl=1;backgroundOutline=1;darkOpacity=0.05;darkOpacity2=0.1;size=64;rotation=91;fillColor=#d0cee2;strokeColor=#56517e;" parent="1" vertex="1">
          <mxGeometry x="100" y="210" width="145.26" height="74.65" as="geometry" />
        </mxCell>
        <mxCell id="PtaGEnMnEHYMcKoFGp5g-11" value="" style="shape=cube;whiteSpace=wrap;html=1;boundedLbl=1;backgroundOutline=1;darkOpacity=0.05;darkOpacity2=0.1;size=64;rotation=91;fillColor=#d0cee2;strokeColor=#56517e;" parent="1" vertex="1">
          <mxGeometry x="120" y="210" width="145.26" height="74.65" as="geometry" />
        </mxCell>
        <mxCell id="PtaGEnMnEHYMcKoFGp5g-15" value="" style="shape=cube;whiteSpace=wrap;html=1;boundedLbl=1;backgroundOutline=1;darkOpacity=0.05;darkOpacity2=0.1;size=46;rotation=91;fillColor=#fad9d5;strokeColor=#ae4132;" parent="1" vertex="1">
          <mxGeometry x="160" y="219.42999999999998" width="93.4" height="54.36" as="geometry" />
        </mxCell>
        <mxCell id="PtaGEnMnEHYMcKoFGp5g-16" value="" style="shape=cube;whiteSpace=wrap;html=1;boundedLbl=1;backgroundOutline=1;darkOpacity=0.05;darkOpacity2=0.1;size=46;rotation=91;fillColor=#d0cee2;strokeColor=#56517e;" parent="1" vertex="1">
          <mxGeometry x="171.86" y="219.42999999999998" width="93.4" height="54.36" as="geometry" />
        </mxCell>
        <mxCell id="PtaGEnMnEHYMcKoFGp5g-17" value="" style="shape=cube;whiteSpace=wrap;html=1;boundedLbl=1;backgroundOutline=1;darkOpacity=0.05;darkOpacity2=0.1;size=46;rotation=91;fillColor=#d0cee2;strokeColor=#56517e;" parent="1" vertex="1">
          <mxGeometry x="190" y="219.42999999999998" width="93.4" height="54.36" as="geometry" />
        </mxCell>
        <mxCell id="PtaGEnMnEHYMcKoFGp5g-18" value="" style="shape=cube;whiteSpace=wrap;html=1;boundedLbl=1;backgroundOutline=1;darkOpacity=0.05;darkOpacity2=0.1;size=46;rotation=91;fillColor=#d0cee2;strokeColor=#56517e;" parent="1" vertex="1">
          <mxGeometry x="210" y="219.42999999999998" width="93.4" height="54.36" as="geometry" />
        </mxCell>
        <mxCell id="PtaGEnMnEHYMcKoFGp5g-20" value="" style="shape=cube;whiteSpace=wrap;html=1;boundedLbl=1;backgroundOutline=1;darkOpacity=0.05;darkOpacity2=0.1;size=20;rotation=91;fillColor=#fad9d5;strokeColor=#ae4132;" parent="1" vertex="1">
          <mxGeometry x="253.39999999999995" y="236.76000000000002" width="46.73" height="37.03" as="geometry" />
        </mxCell>
        <mxCell id="PtaGEnMnEHYMcKoFGp5g-21" value="" style="shape=cube;whiteSpace=wrap;html=1;boundedLbl=1;backgroundOutline=1;darkOpacity=0.05;darkOpacity2=0.1;size=20;rotation=91;fillColor=#d0cee2;strokeColor=#56517e;" parent="1" vertex="1">
          <mxGeometry x="274.01" y="236.76000000000002" width="46.73" height="37.03" as="geometry" />
        </mxCell>
        <mxCell id="PtaGEnMnEHYMcKoFGp5g-22" value="" style="shape=cube;whiteSpace=wrap;html=1;boundedLbl=1;backgroundOutline=1;darkOpacity=0.05;darkOpacity2=0.1;size=20;rotation=91;fillColor=#d0cee2;strokeColor=#56517e;" parent="1" vertex="1">
          <mxGeometry x="295.44" y="236.76000000000002" width="46.73" height="37.03" as="geometry" />
        </mxCell>
        <mxCell id="PtaGEnMnEHYMcKoFGp5g-23" value="" style="shape=cube;whiteSpace=wrap;html=1;boundedLbl=1;backgroundOutline=1;darkOpacity=0.05;darkOpacity2=0.1;size=20;rotation=91;fillColor=#d0cee2;strokeColor=#56517e;" parent="1" vertex="1">
          <mxGeometry x="317.46999999999997" y="236.76000000000002" width="46.73" height="37.03" as="geometry" />
        </mxCell>
        <mxCell id="PtaGEnMnEHYMcKoFGp5g-25" value="" style="shape=cube;whiteSpace=wrap;html=1;boundedLbl=1;backgroundOutline=1;darkOpacity=0.05;darkOpacity2=0.1;size=11;rotation=91;fillColor=#fad9d5;strokeColor=#ae4132;" parent="1" vertex="1">
          <mxGeometry x="352.44" y="236.76" width="30" height="37.47" as="geometry" />
        </mxCell>
        <mxCell id="PtaGEnMnEHYMcKoFGp5g-26" value="" style="shape=cube;whiteSpace=wrap;html=1;boundedLbl=1;backgroundOutline=1;darkOpacity=0.05;darkOpacity2=0.1;size=11;rotation=91;fillColor=#d0cee2;strokeColor=#56517e;" parent="1" vertex="1">
          <mxGeometry x="382.44" y="236.32" width="30" height="37.47" as="geometry" />
        </mxCell>
        <mxCell id="PtaGEnMnEHYMcKoFGp5g-27" value="" style="shape=cube;whiteSpace=wrap;html=1;boundedLbl=1;backgroundOutline=1;darkOpacity=0.05;darkOpacity2=0.1;size=11;rotation=91;fillColor=#d0cee2;strokeColor=#56517e;" parent="1" vertex="1">
          <mxGeometry x="412.43999999999994" y="237.24999999999997" width="30" height="37.47" as="geometry" />
        </mxCell>
        <mxCell id="PtaGEnMnEHYMcKoFGp5g-28" value="" style="shape=cube;whiteSpace=wrap;html=1;boundedLbl=1;backgroundOutline=1;darkOpacity=0.05;darkOpacity2=0.1;size=11;rotation=91;fillColor=#d0cee2;strokeColor=#56517e;" parent="1" vertex="1">
          <mxGeometry x="443.99999999999994" y="237.24999999999997" width="30" height="36.06" as="geometry" />
        </mxCell>
        <mxCell id="PtaGEnMnEHYMcKoFGp5g-32" value="" style="shape=cube;whiteSpace=wrap;html=1;boundedLbl=1;backgroundOutline=1;darkOpacity=0.05;darkOpacity2=0.1;size=46;rotation=91;fillColor=#ffcccc;strokeColor=#36393d;" parent="1" vertex="1">
          <mxGeometry x="306" y="89.99999999999997" width="93.4" height="54.36" as="geometry" />
        </mxCell>
        <mxCell id="PtaGEnMnEHYMcKoFGp5g-33" value="" style="shape=cube;whiteSpace=wrap;html=1;boundedLbl=1;backgroundOutline=1;darkOpacity=0.05;darkOpacity2=0.1;size=46;rotation=91;fillColor=#ffff88;strokeColor=#36393d;" parent="1" vertex="1">
          <mxGeometry x="320.74" y="89.99999999999997" width="93.4" height="54.36" as="geometry" />
        </mxCell>
        <mxCell id="PtaGEnMnEHYMcKoFGp5g-39" value="" style="shape=cube;whiteSpace=wrap;html=1;boundedLbl=1;backgroundOutline=1;darkOpacity=0.05;darkOpacity2=0.1;size=20;rotation=91;fillColor=#ffcccc;strokeColor=#36393d;" parent="1" vertex="1">
          <mxGeometry x="421.63" y="150.00000000000003" width="46.73" height="37.03" as="geometry" />
        </mxCell>
        <mxCell id="PtaGEnMnEHYMcKoFGp5g-40" value="" style="shape=cube;whiteSpace=wrap;html=1;boundedLbl=1;backgroundOutline=1;darkOpacity=0.05;darkOpacity2=0.1;size=20;rotation=91;fillColor=#ffff88;strokeColor=#36393d;" parent="1" vertex="1">
          <mxGeometry x="444" y="150.00000000000003" width="46.73" height="37.03" as="geometry" />
        </mxCell>
        <mxCell id="PtaGEnMnEHYMcKoFGp5g-43" value="" style="shape=cube;whiteSpace=wrap;html=1;boundedLbl=1;backgroundOutline=1;darkOpacity=0.05;darkOpacity2=0.1;size=11;rotation=91;fillColor=#ffcccc;strokeColor=#36393d;" parent="1" vertex="1">
          <mxGeometry x="579" y="187.02999999999997" width="30" height="36.06" as="geometry" />
        </mxCell>
        <mxCell id="PtaGEnMnEHYMcKoFGp5g-44" value="" style="shape=cube;whiteSpace=wrap;html=1;boundedLbl=1;backgroundOutline=1;darkOpacity=0.05;darkOpacity2=0.1;size=11;rotation=91;fillColor=#ffff88;strokeColor=#36393d;" parent="1" vertex="1">
          <mxGeometry x="609" y="187.02999999999997" width="30" height="36.06" as="geometry" />
        </mxCell>
        <mxCell id="PtaGEnMnEHYMcKoFGp5g-53" value="" style="shape=cube;whiteSpace=wrap;html=1;boundedLbl=1;backgroundOutline=1;darkOpacity=0.05;darkOpacity2=0.1;size=8;rotation=91;fillColor=#d0cee2;strokeColor=#56517e;" parent="1" vertex="1">
          <mxGeometry x="445.65" y="331.93" width="17.17" height="28.07" as="geometry" />
        </mxCell>
        <mxCell id="PtaGEnMnEHYMcKoFGp5g-56" value="" style="shape=cube;whiteSpace=wrap;html=1;boundedLbl=1;backgroundOutline=1;darkOpacity=0.05;darkOpacity2=0.1;size=8;rotation=91;fillColor=#ffcccc;strokeColor=#36393d;" parent="1" vertex="1">
          <mxGeometry x="493.56" y="369.03" width="18.81" height="28.07" as="geometry" />
        </mxCell>
        <mxCell id="PtaGEnMnEHYMcKoFGp5g-57" value="" style="shape=cube;whiteSpace=wrap;html=1;boundedLbl=1;backgroundOutline=1;darkOpacity=0.05;darkOpacity2=0.1;size=8;rotation=91;fillColor=#ffff88;strokeColor=#36393d;" parent="1" vertex="1">
          <mxGeometry x="310.23" y="370" width="16.6" height="28.07" as="geometry" />
        </mxCell>
        <mxCell id="PtaGEnMnEHYMcKoFGp5g-61" value="&lt;font style=&quot;font-size: 14px;&quot;&gt;Convolution + ReLU&lt;/font&gt;" style="text;html=1;align=center;verticalAlign=middle;resizable=0;points=[];autosize=1;strokeColor=none;fillColor=none;" parent="1" vertex="1">
          <mxGeometry x="458.35999999999996" y="330" width="150" height="30" as="geometry" />
        </mxCell>
        <mxCell id="PtaGEnMnEHYMcKoFGp5g-62" value="&lt;font style=&quot;font-size: 14px;&quot;&gt;Max Pooling&lt;/font&gt;" style="text;html=1;align=center;verticalAlign=middle;resizable=0;points=[];autosize=1;strokeColor=none;fillColor=none;" parent="1" vertex="1">
          <mxGeometry x="647.98" y="368.07" width="100" height="30" as="geometry" />
        </mxCell>
        <mxCell id="PtaGEnMnEHYMcKoFGp5g-63" value="DWSC" style="text;html=1;align=center;verticalAlign=middle;resizable=0;points=[];autosize=1;strokeColor=none;fillColor=none;" parent="1" vertex="1">
          <mxGeometry x="534" y="368.07" width="60" height="30" as="geometry" />
        </mxCell>
        <mxCell id="PtaGEnMnEHYMcKoFGp5g-65" value="&lt;font style=&quot;font-size: 14px;&quot;&gt;Batch Normalization&lt;/font&gt;" style="text;html=1;align=center;verticalAlign=middle;resizable=0;points=[];autosize=1;strokeColor=none;fillColor=none;" parent="1" vertex="1">
          <mxGeometry x="325.13" y="368.07" width="150" height="30" as="geometry" />
        </mxCell>
        <mxCell id="Jxy2KPMrToj8zNCpGOPg-11" style="edgeStyle=orthogonalEdgeStyle;rounded=0;orthogonalLoop=1;jettySize=auto;html=1;entryX=1;entryY=0.5;entryDx=0;entryDy=0;entryPerimeter=0;" parent="1" source="lA3_piKjeRt-SFjF2ejj-1" target="Jxy2KPMrToj8zNCpGOPg-9" edge="1">
          <mxGeometry relative="1" as="geometry">
            <mxPoint x="760" y="270" as="targetPoint" />
          </mxGeometry>
        </mxCell>
        <mxCell id="lA3_piKjeRt-SFjF2ejj-1" value="" style="shape=cube;whiteSpace=wrap;html=1;boundedLbl=1;backgroundOutline=1;darkOpacity=0.05;darkOpacity2=0.1;size=46;rotation=91;fillColor=#fad9d5;strokeColor=#ae4132;" parent="1" vertex="1">
          <mxGeometry x="330.13" y="89.99999999999997" width="93.4" height="54.36" as="geometry" />
        </mxCell>
        <mxCell id="Jxy2KPMrToj8zNCpGOPg-10" style="edgeStyle=orthogonalEdgeStyle;rounded=0;orthogonalLoop=1;jettySize=auto;html=1;" parent="1" source="lA3_piKjeRt-SFjF2ejj-2" edge="1">
          <mxGeometry relative="1" as="geometry">
            <mxPoint x="710" y="250" as="targetPoint" />
          </mxGeometry>
        </mxCell>
        <mxCell id="lA3_piKjeRt-SFjF2ejj-2" value="" style="shape=cube;whiteSpace=wrap;html=1;boundedLbl=1;backgroundOutline=1;darkOpacity=0.05;darkOpacity2=0.1;size=20;rotation=91;fillColor=#fad9d5;strokeColor=#ae4132;" parent="1" vertex="1">
          <mxGeometry x="465.64" y="150.00000000000003" width="46.73" height="37.03" as="geometry" />
        </mxCell>
        <mxCell id="Jxy2KPMrToj8zNCpGOPg-12" style="edgeStyle=orthogonalEdgeStyle;rounded=0;orthogonalLoop=1;jettySize=auto;html=1;" parent="1" source="lA3_piKjeRt-SFjF2ejj-3" edge="1">
          <mxGeometry relative="1" as="geometry">
            <mxPoint x="720" y="250" as="targetPoint" />
          </mxGeometry>
        </mxCell>
        <mxCell id="lA3_piKjeRt-SFjF2ejj-3" value="" style="shape=cube;whiteSpace=wrap;html=1;boundedLbl=1;backgroundOutline=1;darkOpacity=0.05;darkOpacity2=0.1;size=11;rotation=91;fillColor=#fad9d5;strokeColor=#ae4132;" parent="1" vertex="1">
          <mxGeometry x="639" y="187.02999999999997" width="30" height="36.06" as="geometry" />
        </mxCell>
        <mxCell id="lA3_piKjeRt-SFjF2ejj-4" value="" style="endArrow=classic;html=1;rounded=0;" parent="1" edge="1">
          <mxGeometry width="50" height="50" relative="1" as="geometry">
            <mxPoint x="260.78000000000003" y="241.72" as="sourcePoint" />
            <mxPoint x="320" y="130" as="targetPoint" />
            <Array as="points">
              <mxPoint x="260.04" y="130" />
            </Array>
          </mxGeometry>
        </mxCell>
        <mxCell id="Jxy2KPMrToj8zNCpGOPg-8" style="edgeStyle=orthogonalEdgeStyle;rounded=0;orthogonalLoop=1;jettySize=auto;html=1;exitX=0;exitY=0;exitDx=14.809999999999999;exitDy=0;exitPerimeter=0;" parent="1" source="lA3_piKjeRt-SFjF2ejj-5" edge="1">
          <mxGeometry relative="1" as="geometry">
            <mxPoint x="696" y="258" as="targetPoint" />
            <mxPoint x="510" y="258" as="sourcePoint" />
          </mxGeometry>
        </mxCell>
        <mxCell id="lA3_piKjeRt-SFjF2ejj-5" value="" style="shape=cube;whiteSpace=wrap;html=1;boundedLbl=1;backgroundOutline=1;darkOpacity=0.05;darkOpacity2=0.1;size=8;rotation=91;fillColor=#f8cecc;strokeColor=#b85450;" parent="1" vertex="1">
          <mxGeometry x="477.6" y="241.45999999999992" width="22.81" height="28.07" as="geometry" />
        </mxCell>
        <mxCell id="lA3_piKjeRt-SFjF2ejj-7" value="" style="endArrow=classic;html=1;rounded=0;" parent="1" edge="1">
          <mxGeometry width="50" height="50" relative="1" as="geometry">
            <mxPoint x="348.2" y="250.1" as="sourcePoint" />
            <mxPoint x="420" y="170" as="targetPoint" />
            <Array as="points">
              <mxPoint x="348.2" y="170" />
            </Array>
          </mxGeometry>
        </mxCell>
        <mxCell id="lA3_piKjeRt-SFjF2ejj-8" value="" style="endArrow=classic;html=1;rounded=0;" parent="1" edge="1">
          <mxGeometry width="50" height="50" relative="1" as="geometry">
            <mxPoint x="475.15999999999997" y="250.1" as="sourcePoint" />
            <mxPoint x="570" y="200" as="targetPoint" />
            <Array as="points">
              <mxPoint x="475.15999999999997" y="200.1" />
            </Array>
          </mxGeometry>
        </mxCell>
        <mxCell id="Jxy2KPMrToj8zNCpGOPg-9" value="" style="verticalLabelPosition=bottom;verticalAlign=top;html=1;shape=mxgraph.flowchart.summing_function;" parent="1" vertex="1">
          <mxGeometry x="700" y="250.1" width="30.81" height="30" as="geometry" />
        </mxCell>
        <mxCell id="Jxy2KPMrToj8zNCpGOPg-13" value="" style="verticalLabelPosition=bottom;verticalAlign=top;html=1;shape=mxgraph.flowchart.summing_function;" parent="1" vertex="1">
          <mxGeometry x="303.4" y="330" width="30.81" height="30" as="geometry" />
        </mxCell>
        <mxCell id="Jxy2KPMrToj8zNCpGOPg-14" value="&lt;font style=&quot;font-size: 14px;&quot;&gt;Concatenation&lt;/font&gt;" style="text;html=1;align=center;verticalAlign=middle;resizable=0;points=[];autosize=1;strokeColor=none;fillColor=none;" parent="1" vertex="1">
          <mxGeometry x="330.13" y="330" width="110" height="30" as="geometry" />
        </mxCell>
        <mxCell id="Jxy2KPMrToj8zNCpGOPg-18" value="" style="shape=cube;whiteSpace=wrap;html=1;boundedLbl=1;backgroundOutline=1;darkOpacity=0.05;darkOpacity2=0.1;size=8;rotation=91;fillColor=#fad9d5;strokeColor=#ae4132;" parent="1" vertex="1">
          <mxGeometry x="621.38" y="370" width="16.6" height="28.07" as="geometry" />
        </mxCell>
      </root>
    </mxGraphModel>
  </diagram>
</mxfile>
